<?xml version="1.0" encoding="UTF-8"?>
<svg xmlns="http://www.w3.org/2000/svg" width="512" height="512" viewBox="0 0 108 108">
  <!-- Background -->
  <rect x="0" y="0" width="108" height="108" fill="#0f172a"/>

  <!-- Eye icon (Visibility) - centered -->
  <path fill="#FFFFFF" d="M54,38c-11,0 -20.73,6.24 -25.5,15.39 -0.15,0.29 -0.15,0.63 0,0.92C33.27,62.76 43,69 54,69s20.73,-6.24 25.5,-15.39c0.15,-0.29 0.15,-0.63 0,-0.92C74.73,44.24 65,38 54,38zM54,64c-5.52,0 -10,-4.48 -10,-10s4.48,-10 10,-10 10,4.48 10,10 -4.48,10 -10,10zM54,47.5c-3.59,0 -6.5,2.91 -6.5,6.5s2.91,6.5 6.5,6.5 6.5,-2.91 6.5,-6.5 -2.91,-6.5 -6.5,-6.5z"/>

  <!-- Star icon overlay - top right of the eye -->
  <path fill="#F2CC0D" d="M68,40l1.5,4.5h4.5l-3.5,2.5l1.5,4.5l-3.5,-2.5l-3.5,2.5l1.5,-4.5l-3.5,-2.5h4.5z"/>
</svg>

